Krijtstof-Regular_25_12_21__01.ufo
<glyph name="comma" format="2">
  <advance width="313"/>
  <unicode hex="002C"/>
  <outline>
    <contour>
      <point x="74" y="-140" type="line"/>
      <point x="143" y="-110"/>
      <point x="189" y="-37"/>
      <point x="189" y="33" type="curve" smooth="yes"/>
      <point x="189" y="85"/>
      <point x="157" y="121"/>
      <point x="111" y="121" type="curve" smooth="yes"/>
      <point x="69" y="121"/>
      <point x="39" y="91"/>
      <point x="39" y="49" type="curve" smooth="yes"/>
      <point x="39" y="13"/>
      <point x="72" y="-20"/>
      <point x="111" y="-20" type="curve" smooth="yes"/>
      <point x="128" y="-20"/>
      <point x="143" y="-12"/>
      <point x="157" y="3" type="curve"/>
      <point x="96" y="29" type="line"/>
      <point x="125" y="-46"/>
      <point x="92" y="-71"/>
      <point x="45" y="-99" type="curve"/>
    </contour>
  </outline>
</glyph>
<glyph name="hyphen" format="2">
  <advance width="272"/>
  <unicode hex="002D"/>
  <outline>
    <contour>
      <point x="19" y="334" type="line"/>
      <point x="19" y="247" type="line"/>
      <point x="209" y="247" type="line"/>
      <point x="209" y="334" type="line"/>
    </contour>
  </outline>
</glyph>
<glyph name="period" format="2">
  <advance width="313"/>
  <unicode hex="002E"/>
  <outline>
    <contour>
      <point x="110" y="-16" type="curve" smooth="yes"/>
      <point x="147" y="-16"/>
      <point x="178" y="17"/>
      <point x="178" y="53" type="curve" smooth="yes"/>
      <point x="178" y="92"/>
      <point x="147" y="123"/>
      <point x="110" y="123" type="curve" smooth="yes"/>
      <point x="72" y="123"/>
      <point x="39" y="92"/>
      <point x="39" y="53" type="curve" smooth="yes"/>
      <point x="39" y="17"/>
      <point x="72" y="-16"/>
    </contour>
  </outline>
</glyph>
<glyph name="A" format="2">
  <advance width="594"/>
  <unicode hex="0041"/>
  <outline>
    <contour>
      <point x="139" y="201" type="line"/>
      <point x="393" y="201" type="line"/>
      <point x="393" y="251" type="line"/>
      <point x="139" y="251" type="line"/>
    </contour>
    <contour>
      <point x="434" y="72" type="line"/>
      <point x="383" y="8" type="line"/>
      <point x="387" y="0" type="line"/>
      <point x="570" y="0" type="line"/>
      <point x="574" y="8" type="line"/>
      <point x="527" y="72" type="line"/>
    </contour>
    <contour>
      <point x="55" y="72" type="line"/>
      <point x="4" y="8" type="line"/>
      <point x="8" y="0" type="line"/>
      <point x="171" y="0" type="line"/>
      <point x="175" y="8" type="line"/>
      <point x="111" y="72" type="line"/>
    </contour>
    <contour>
      <point x="97" y="0" type="line"/>
      <point x="264" y="559" type="line"/>
      <point x="270" y="559" type="line"/>
      <point x="450" y="0" type="line"/>
      <point x="553" y="0" type="line"/>
      <point x="318" y="700" type="line"/>
      <point x="198" y="700" type="line"/>
      <point x="194" y="692" type="line"/>
      <point x="228" y="621" type="line"/>
      <point x="32" y="0" type="line"/>
    </contour>
  </outline>
</glyph>
<glyph name="B" format="2">
  <advance width="555"/>
  <unicode hex="0042"/>
  <outline>
    <contour>
      <point x="255" y="0" type="line" smooth="yes"/>
      <point x="435" y="0"/>
      <point x="518" y="70"/>
      <point x="518" y="197" type="curve" smooth="yes"/>
      <point x="518" y="300"/>
      <point x="430" y="362"/>
      <point x="337" y="379" type="curve"/>
      <point x="337" y="385" type="line"/>
      <point x="399" y="400"/>
      <point x="469" y="453"/>
      <point x="469" y="528" type="curve" smooth="yes"/>
      <point x="469" y="650"/>
      <point x="374" y="700"/>
      <point x="232" y="700" type="curve" smooth="yes"/>
      <point x="79" y="700" type="line"/>
      <point x="79" y="0" type="line"/>
    </contour>
    <contour>
      <point x="145" y="390" type="line"/>
      <point x="145" y="340" type="line"/>
      <point x="238" y="340" type="line" smooth="yes"/>
      <point x="346" y="340"/>
      <point x="412" y="288"/>
      <point x="412" y="197" type="curve" smooth="yes"/>
      <point x="412" y="91"/>
      <point x="354" y="50"/>
      <point x="250" y="50" type="curve" smooth="yes"/>
      <point x="179" y="50" type="line"/>
      <point x="179" y="650" type="line"/>
      <point x="222" y="650" type="line" smooth="yes"/>
      <point x="316" y="650"/>
      <point x="367" y="618"/>
      <point x="367" y="527" type="curve" smooth="yes"/>
      <point x="367" y="445"/>
      <point x="334" y="390"/>
      <point x="238" y="390" type="curve" smooth="yes"/>
    </contour>
    <contour>
      <point x="79" y="152" type="line"/>
      <point x="79" y="72" type="line"/>
      <point x="36" y="8" type="line"/>
      <point x="40" y="0" type="line"/>
      <point x="94" y="0" type="line"/>
      <point x="94" y="152" type="line"/>
    </contour>
    <contour>
      <point x="94" y="598" type="line"/>
      <point x="94" y="700" type="line"/>
      <point x="41" y="700" type="line"/>
      <point x="37" y="692" type="line"/>
      <point x="79" y="632" type="line"/>
      <point x="79" y="598" type="line"/>
    </contour>
  </outline>
</glyph>
<glyph name="C" format="2">
  <advance width="495"/>
  <unicode hex="0043"/>
  <outline>
    <contour>
      <point x="413" y="481" type="line"/>
      <point x="432" y="485" type="line"/>
      <point x="432" y="699" type="line"/>
      <point x="395" y="705"/>
      <point x="353" y="710"/>
      <point x="307" y="710" type="curve" smooth="yes"/>
      <point x="118" y="710"/>
      <point x="39" y="570"/>
      <point x="39" y="354" type="curve" smooth="yes"/>
      <point x="39" y="135"/>
      <point x="131" y="-10"/>
      <point x="270" y="-10" type="curve" smooth="yes"/>
      <point x="383" y="-10"/>
      <point x="444" y="69"/>
      <point x="474" y="225" type="curve"/>
      <point x="447" y="232" type="line"/>
      <point x="417" y="135"/>
      <point x="379" y="69"/>
      <point x="304" y="69" type="curve" smooth="yes"/>
      <point x="219" y="69"/>
      <point x="153" y="142"/>
      <point x="153" y="354" type="curve" smooth="yes"/>
      <point x="153" y="586"/>
      <point x="197" y="665"/>
      <point x="293" y="665" type="curve" smooth="yes"/>
      <point x="317" y="665"/>
      <point x="330" y="665"/>
      <point x="360" y="660" type="curve"/>
      <point x="296" y="687" type="line"/>
    </contour>
  </outline>
</glyph>
<glyph name="D" format="2">
  <advance width="597"/>
  <unicode hex="0044"/>
  <outline>
    <contour>
      <point x="163" y="45" type="line"/>
      <point x="163" y="0" type="line"/>
      <point x="255" y="0" type="line" smooth="yes"/>
      <point x="468" y="0"/>
      <point x="556" y="161"/>
      <point x="556" y="360" type="curve" smooth="yes"/>
      <point x="556" y="569"/>
      <point x="453" y="700"/>
      <point x="258" y="700" type="curve" smooth="yes"/>
      <point x="94" y="700" type="line"/>
      <point x="94" y="0" type="line"/>
      <point x="194" y="0" type="line"/>
      <point x="194" y="655" type="line"/>
      <point x="244" y="655" type="line" smooth="yes"/>
      <point x="367" y="655"/>
      <point x="449" y="613"/>
      <point x="449" y="360" type="curve" smooth="yes"/>
      <point x="449" y="115"/>
      <point x="376" y="45"/>
      <point x="257" y="45" type="curve" smooth="yes"/>
    </contour>
    <contour>
      <point x="94" y="152" type="line"/>
      <point x="94" y="72" type="line"/>
      <point x="51" y="8" type="line"/>
      <point x="55" y="0" type="line"/>
      <point x="109" y="0" type="line"/>
      <point x="109" y="152" type="line"/>
    </contour>
    <contour>
      <point x="109" y="598" type="line"/>
      <point x="109" y="700" type="line"/>
      <point x="56" y="700" type="line"/>
      <point x="52" y="692" type="line"/>
      <point x="94" y="632" type="line"/>
      <point x="94" y="598" type="line"/>
    </contour>
  </outline>
</glyph>
<glyph name="E" format="2">
	<advance width="514"/>
	<unicode hex="0045"/>
	<outline>
		<contour>
			<point x="176" y="1" type="line"/>
			<point x="176" y="701" type="line"/>
			<point x="76" y="701" type="line"/>
			<point x="76" y="1" type="line"/>
		</contour>
		<contour>
			<point x="76" y="153" type="line"/>
			<point x="76" y="73" type="line"/>
			<point x="33" y="9" type="line"/>
			<point x="37" y="1" type="line"/>
			<point x="91" y="1" type="line"/>
			<point x="91" y="153" type="line"/>
		</contour>
		<contour>
			<point x="91" y="599" type="line"/>
			<point x="91" y="701" type="line"/>
			<point x="38" y="701" type="line"/>
			<point x="34" y="693" type="line"/>
			<point x="76" y="633" type="line"/>
			<point x="76" y="599" type="line"/>
		</contour>
		<contour>
			<point x="163" y="407" type="line"/>
			<point x="163" y="357" type="line"/>
			<point x="329" y="357" type="line"/>
			<point x="396" y="271" type="line"/>
			<point x="409" y="276" type="line"/>
			<point x="368" y="454" type="line"/>
			<point x="359" y="454" type="line"/>
			<point x="329" y="407" type="line"/>
		</contour>
		<contour>
			<point x="164" y="1" type="line"/>
			<point x="466" y="1" type="line"/>
			<point x="489" y="216" type="line"/>
			<point x="480" y="220" type="line"/>
			<point x="372" y="51" type="line"/>
			<point x="164" y="51" type="line"/>
		</contour>
		<contour>
			<point x="160" y="700" type="line"/>
			<point x="160" y="650" type="line"/>
			<point x="343" y="650" type="line"/>
			<point x="455" y="487" type="line"/>
			<point x="461" y="489" type="line"/>
			<point x="446" y="700" type="line"/>
		</contour>
	</outline>
</glyph>
<glyph name="F" format="2">
  <advance width="480"/>
  <unicode hex="0046"/>
  <outline>
    <contour>
      <point x="166" y="700" type="line"/>
      <point x="166" y="650" type="line"/>
      <point x="348" y="650" type="line"/>
      <point x="460" y="487" type="line"/>
      <point x="466" y="489" type="line"/>
      <point x="451" y="700" type="line"/>
    </contour>
    <contour>
      <point x="186" y="0" type="line"/>
      <point x="186" y="700" type="line"/>
      <point x="86" y="700" type="line"/>
      <point x="86" y="0" type="line"/>
    </contour>
    <contour>
      <point x="86" y="152" type="line"/>
      <point x="86" y="72" type="line"/>
      <point x="43" y="8" type="line"/>
      <point x="47" y="0" type="line"/>
      <point x="230" y="0" type="line"/>
      <point x="234" y="8" type="line"/>
      <point x="186" y="72" type="line"/>
      <point x="186" y="152" type="line"/>
    </contour>
    <contour>
      <point x="104" y="598" type="line"/>
      <point x="104" y="700" type="line"/>
      <point x="48" y="700" type="line"/>
      <point x="44" y="692" type="line"/>
      <point x="86" y="632" type="line"/>
      <point x="86" y="598" type="line"/>
    </contour>
    <contour>
      <point x="163" y="392" type="line"/>
      <point x="163" y="342" type="line"/>
      <point x="316" y="342" type="line"/>
      <point x="383" y="256" type="line"/>
      <point x="396" y="261" type="line"/>
      <point x="355" y="439" type="line"/>
      <point x="346" y="439" type="line"/>
      <point x="316" y="392" type="line"/>
    </contour>
  </outline>
</glyph>
<glyph name="G" format="2">
	<advance width="579"/>
	<unicode hex="0047"/>
	<outline>
		<contour>
			<point x="506" y="410" type="line"/>
			<point x="282" y="410" type="line"/>
			<point x="280" y="386" type="line"/>
			<point x="408" y="354" type="line"/>
			<point x="408" y="42" type="line"/>
			<point x="453" y="69" type="line"/>
			<point x="412" y="49"/>
			<point x="370" y="36"/>
			<point x="324" y="36" type="curve" smooth="yes"/>
			<point x="214" y="36"/>
			<point x="158" y="113"/>
			<point x="158" y="360" type="curve" smooth="yes"/>
			<point x="158" y="560"/>
			<point x="207" y="670"/>
			<point x="307" y="670" type="curve" smooth="yes"/>
			<point x="330" y="670"/>
			<point x="344" y="668"/>
			<point x="363" y="664" type="curve"/>
			<point x="472" y="497" type="line"/>
			<point x="481" y="499" type="line"/>
			<point x="481" y="696" type="line"/>
			<point x="430" y="707"/>
			<point x="386" y="713"/>
			<point x="329" y="713" type="curve" smooth="yes"/>
			<point x="124" y="713"/>
			<point x="39" y="546"/>
			<point x="39" y="360" type="curve" smooth="yes"/>
			<point x="39" y="120"/>
			<point x="133" y="-11"/>
			<point x="319" y="-11" type="curve" smooth="yes"/>
			<point x="404" y="-11"/>
			<point x="492" y="20"/>
			<point x="564" y="63" type="curve"/>
			<point x="564" y="77" type="line"/>
			<point x="509" y="89" type="line"/>
		</contour>
	</outline>
</glyph>
<glyph name="H" format="2">
  <advance width="679"/>
  <unicode hex="0048"/>
  <outline>
    <contour>
      <point x="166" y="402" type="line"/>
      <point x="166" y="352" type="line"/>
      <point x="510" y="352" type="line"/>
      <point x="510" y="402" type="line"/>
    </contour>
    <contour>
      <point x="202" y="598" type="line"/>
      <point x="202" y="632" type="line"/>
      <point x="243" y="692" type="line"/>
      <point x="239" y="700" type="line"/>
      <point x="61" y="700" type="line"/>
      <point x="57" y="692" type="line"/>
      <point x="99" y="632" type="line"/>
      <point x="99" y="598" type="line"/>
    </contour>
    <contour>
      <point x="579" y="598" type="line"/>
      <point x="579" y="632" type="line"/>
      <point x="621" y="692" type="line"/>
      <point x="617" y="700" type="line"/>
      <point x="438" y="700" type="line"/>
      <point x="434" y="692" type="line"/>
      <point x="475" y="632" type="line"/>
      <point x="475" y="598" type="line"/>
    </contour>
    <contour>
      <point x="99" y="152" type="line"/>
      <point x="99" y="72" type="line"/>
      <point x="56" y="8" type="line"/>
      <point x="60" y="0" type="line"/>
      <point x="242" y="0" type="line"/>
      <point x="246" y="8" type="line"/>
      <point x="202" y="72" type="line"/>
      <point x="202" y="152" type="line"/>
    </contour>
    <contour>
      <point x="202" y="0" type="line"/>
      <point x="202" y="700" type="line"/>
      <point x="99" y="700" type="line"/>
      <point x="99" y="0" type="line"/>
    </contour>
    <contour>
      <point x="475" y="152" type="line"/>
      <point x="475" y="72" type="line"/>
      <point x="432" y="8" type="line"/>
      <point x="436" y="0" type="line"/>
      <point x="619" y="0" type="line"/>
      <point x="623" y="8" type="line"/>
      <point x="579" y="72" type="line"/>
      <point x="579" y="152" type="line"/>
    </contour>
    <contour>
      <point x="579" y="0" type="line"/>
      <point x="579" y="700" type="line"/>
      <point x="475" y="700" type="line"/>
      <point x="475" y="0" type="line"/>
    </contour>
  </outline>
</glyph>
<glyph name="I" format="2">
	<advance width="265"/>
	<unicode hex="0049"/>
	<outline>
		<contour>
			<point x="182" y="598" type="line"/>
			<point x="182" y="632" type="line"/>
			<point x="223" y="692" type="line"/>
			<point x="219" y="700" type="line"/>
			<point x="44" y="700" type="line"/>
			<point x="40" y="692" type="line"/>
			<point x="82" y="632" type="line"/>
			<point x="82" y="598" type="line"/>
		</contour>
		<contour>
			<point x="82" y="152" type="line"/>
			<point x="82" y="72" type="line"/>
			<point x="39" y="8" type="line"/>
			<point x="43" y="0" type="line"/>
			<point x="222" y="0" type="line"/>
			<point x="226" y="8" type="line"/>
			<point x="182" y="72" type="line"/>
			<point x="182" y="152" type="line"/>
		</contour>
		<contour>
			<point x="182" y="0" type="line"/>
			<point x="182" y="700" type="line"/>
			<point x="82" y="700" type="line"/>
			<point x="82" y="0" type="line"/>
		</contour>
	</outline>
</glyph>
<glyph name="J" format="2">
  <advance width="248"/>
  <unicode hex="004A"/>
  <outline>
    <contour>
      <point x="174" y="598" type="line"/>
      <point x="174" y="632" type="line"/>
      <point x="215" y="692" type="line"/>
      <point x="211" y="700" type="line"/>
      <point x="5" y="700" type="line"/>
      <point x="1" y="692" type="line"/>
      <point x="74" y="629" type="line"/>
      <point x="74" y="598" type="line"/>
    </contour>
    <contour>
      <point x="70" y="-136" type="curve" smooth="yes"/>
      <point x="140" y="-136"/>
      <point x="174" y="-82"/>
      <point x="174" y="86" type="curve" smooth="yes"/>
      <point x="174" y="700" type="line"/>
      <point x="74" y="700" type="line"/>
      <point x="74" y="146" type="line" smooth="yes"/>
      <point x="74" y="74"/>
      <point x="85" y="-2"/>
      <point x="129" y="-90" type="curve"/>
      <point x="94" y="-59"/>
      <point x="74" y="-51"/>
      <point x="46" y="-51" type="curve" smooth="yes"/>
      <point x="17" y="-51"/>
      <point x="-6" y="-65"/>
      <point x="-6" y="-88" type="curve" smooth="yes"/>
      <point x="-6" y="-115"/>
      <point x="23" y="-136"/>
    </contour>
  </outline>
</glyph>
<glyph name="K" format="2">
	<advance width="571"/>
	<unicode hex="004B"/>
	<outline>
		<contour>
			<point x="179" y="598" type="line"/>
			<point x="179" y="632" type="line"/>
			<point x="220" y="692" type="line"/>
			<point x="216" y="700" type="line"/>
			<point x="41" y="700" type="line"/>
			<point x="37" y="692" type="line"/>
			<point x="79" y="632" type="line"/>
			<point x="79" y="598" type="line"/>
		</contour>
		<contour>
			<point x="79" y="152" type="line"/>
			<point x="79" y="72" type="line"/>
			<point x="36" y="8" type="line"/>
			<point x="40" y="0" type="line"/>
			<point x="219" y="0" type="line"/>
			<point x="223" y="8" type="line"/>
			<point x="179" y="72" type="line"/>
			<point x="179" y="152" type="line"/>
		</contour>
		<contour>
			<point x="179" y="0" type="line"/>
			<point x="179" y="700" type="line"/>
			<point x="79" y="700" type="line"/>
			<point x="79" y="0" type="line"/>
		</contour>
		<contour>
			<point x="250" y="390" type="line"/>
			<point x="410" y="69" type="line"/>
			<point x="381" y="8" type="line"/>
			<point x="385" y="0" type="line"/>
			<point x="583" y="0" type="line"/>
			<point x="589" y="7" type="line"/>
			<point x="526" y="70" type="line"/>
			<point x="320" y="469" type="line"/>
		</contour>
		<contour>
			<point x="135" y="285" type="line"/>
			<point x="155" y="237" type="line"/>
			<point x="495" y="648" type="line"/>
			<point x="559" y="691" type="line"/>
			<point x="557" y="700" type="line"/>
			<point x="358" y="700" type="line"/>
			<point x="354" y="693" type="line"/>
			<point x="406" y="634" type="line"/>
		</contour>
	</outline>
</glyph>
<glyph name="L" format="2">
	<advance width="483"/>
	<unicode hex="004C"/>
	<outline>
		<contour>
			<point x="182" y="598" type="line"/>
			<point x="182" y="627" type="line"/>
			<point x="240" y="692" type="line"/>
			<point x="236" y="700" type="line"/>
			<point x="44" y="700" type="line"/>
			<point x="40" y="692" type="line"/>
			<point x="82" y="632" type="line"/>
			<point x="82" y="598" type="line"/>
		</contour>
		<contour>
			<point x="82" y="152" type="line"/>
			<point x="82" y="72" type="line"/>
			<point x="39" y="8" type="line"/>
			<point x="43" y="0" type="line"/>
			<point x="112" y="0" type="line"/>
			<point x="112" y="152" type="line"/>
		</contour>
		<contour>
			<point x="182" y="0" type="line"/>
			<point x="182" y="700" type="line"/>
			<point x="82" y="700" type="line"/>
			<point x="82" y="0" type="line"/>
		</contour>
		<contour>
			<point x="152" y="0" type="line"/>
			<point x="441" y="0" type="line"/>
			<point x="455" y="237" type="line"/>
			<point x="436" y="241" type="line"/>
			<point x="341" y="50" type="line"/>
			<point x="152" y="50" type="line"/>
		</contour>
	</outline>
</glyph>
<glyph name="M" format="2">
	<advance width="834"/>
	<unicode hex="004D"/>
	<outline>
		<contour>
			<point x="129" y="74" type="line"/>
			<point x="184" y="548" type="line"/>
			<point x="190" y="548" type="line"/>
			<point x="377" y="-6" type="line"/>
			<point x="424" y="-6" type="line"/>
			<point x="597" y="548" type="line"/>
			<point x="604" y="548" type="line"/>
			<point x="669" y="70" type="line"/>
			<point x="606" y="7" type="line"/>
			<point x="609" y="0" type="line"/>
			<point x="820" y="0" type="line"/>
			<point x="822" y="7" type="line"/>
			<point x="774" y="76" type="line"/>
			<point x="689" y="642" type="line"/>
			<point x="738" y="691" type="line"/>
			<point x="733" y="700" type="line"/>
			<point x="577" y="700" type="line"/>
			<point x="422" y="179" type="line"/>
			<point x="416" y="179" type="line"/>
			<point x="243" y="700" type="line"/>
			<point x="93" y="700" type="line"/>
			<point x="89" y="692" type="line"/>
			<point x="138" y="636" type="line"/>
			<point x="63" y="82" type="line"/>
			<point x="13" y="8" type="line"/>
			<point x="16" y="0" type="line"/>
			<point x="189" y="0" type="line"/>
			<point x="191" y="9" type="line"/>
		</contour>
	</outline>
</glyph>
<glyph name="N" format="2">
  <advance width="609"/>
  <unicode hex="004E"/>
  <outline>
    <contour>
      <point x="151" y="73" type="line"/>
      <point x="151" y="518" type="line"/>
      <point x="157" y="518" type="line"/>
      <point x="483" y="0" type="line"/>
      <point x="532" y="0" type="line"/>
      <point x="532" y="631" type="line"/>
      <point x="580" y="693" type="line"/>
      <point x="577" y="700" type="line"/>
      <point x="398" y="700" type="line"/>
      <point x="396" y="692" type="line"/>
      <point x="476" y="630" type="line"/>
      <point x="476" y="195" type="line"/>
      <point x="470" y="195" type="line"/>
      <point x="147" y="700" type="line"/>
      <point x="30" y="700" type="line"/>
      <point x="27" y="693" type="line"/>
      <point x="107" y="572" type="line"/>
      <point x="95" y="642" type="line"/>
      <point x="95" y="75" type="line"/>
      <point x="46" y="9" type="line"/>
      <point x="50" y="0" type="line"/>
      <point x="228" y="0" type="line"/>
      <point x="230" y="8" type="line"/>
    </contour>
  </outline>
</glyph>
<glyph name="O" format="2">
  <advance width="620"/>
  <unicode hex="004F"/>
  <outline>
    <contour>
      <point x="311" y="-14" type="curve" smooth="yes"/>
      <point x="482" y="-14"/>
      <point x="573" y="154"/>
      <point x="573" y="357" type="curve" smooth="yes"/>
      <point x="573" y="547"/>
      <point x="482" y="714"/>
      <point x="311" y="714" type="curve" smooth="yes"/>
      <point x="139" y="714"/>
      <point x="47" y="547"/>
      <point x="47" y="357" type="curve" smooth="yes"/>
      <point x="47" y="154"/>
      <point x="139" y="-14"/>
    </contour>
    <contour>
      <point x="454" y="357" type="curve" smooth="yes"/>
      <point x="454" y="142"/>
      <point x="410" y="31"/>
      <point x="311" y="31" type="curve" smooth="yes"/>
      <point x="211" y="31"/>
      <point x="167" y="142"/>
      <point x="167" y="357" type="curve" smooth="yes"/>
      <point x="167" y="559"/>
      <point x="211" y="671"/>
      <point x="311" y="671" type="curve" smooth="yes"/>
      <point x="410" y="671"/>
      <point x="454" y="559"/>
    </contour>
  </outline>
</glyph>
<glyph name="P" format="2">
	<advance width="490"/>
	<unicode hex="0050"/>
	<outline>
		<contour>
			<point x="161" y="333" type="line"/>
			<point x="161" y="285" type="line"/>
			<point x="222" y="285" type="line" smooth="yes"/>
			<point x="344" y="285"/>
			<point x="464" y="349"/>
			<point x="464" y="493" type="curve" smooth="yes"/>
			<point x="464" y="644"/>
			<point x="354" y="700"/>
			<point x="230" y="700" type="curve" smooth="yes"/>
			<point x="72" y="700" type="line"/>
			<point x="72" y="0" type="line"/>
			<point x="227" y="0" type="line"/>
			<point x="231" y="10" type="line"/>
			<point x="172" y="67" type="line"/>
			<point x="172" y="650" type="line"/>
			<point x="214" y="650" type="line" smooth="yes"/>
			<point x="297" y="650"/>
			<point x="362" y="612"/>
			<point x="362" y="493" type="curve" smooth="yes"/>
			<point x="362" y="370"/>
			<point x="297" y="333"/>
			<point x="214" y="333" type="curve" smooth="yes"/>
		</contour>
		<contour>
			<point x="72" y="152" type="line"/>
			<point x="72" y="72" type="line"/>
			<point x="29" y="8" type="line"/>
			<point x="33" y="0" type="line"/>
			<point x="87" y="0" type="line"/>
			<point x="87" y="152" type="line"/>
		</contour>
		<contour>
			<point x="87" y="598" type="line"/>
			<point x="87" y="700" type="line"/>
			<point x="34" y="700" type="line"/>
			<point x="30" y="692" type="line"/>
			<point x="72" y="632" type="line"/>
			<point x="72" y="598" type="line"/>
		</contour>
	</outline>
</glyph>
<glyph name="Q" format="2">
	<advance width="621"/>
	<unicode hex="0051"/>
	<outline>
		<contour>
			<point x="241" y="8" type="line"/>
			<point x="292" y="-75"/>
			<point x="363" y="-121"/>
			<point x="493" y="-129" type="curve"/>
			<point x="501" y="-110" type="line"/>
			<point x="429" y="-84"/>
			<point x="383" y="-46"/>
			<point x="354" y="17" type="curve"/>
		</contour>
		<component base="O"/>
	</outline>
</glyph>
<glyph name="R" format="2">
	<advance width="553"/>
	<unicode hex="0052"/>
	<outline>
		<contour>
			<point x="251" y="-5" type="line"/>
			<point x="255" y="4" type="line"/>
			<point x="183" y="69" type="line"/>
			<point x="183" y="645" type="line"/>
			<point x="264" y="645" type="line" smooth="yes"/>
			<point x="354" y="645"/>
			<point x="395" y="602"/>
			<point x="395" y="511" type="curve" smooth="yes"/>
			<point x="395" y="410"/>
			<point x="354" y="361"/>
			<point x="252" y="361" type="curve" smooth="yes"/>
			<point x="163" y="361" type="line"/>
			<point x="163" y="311" type="line"/>
			<point x="262" y="311" type="line" smooth="yes"/>
			<point x="414" y="311"/>
			<point x="505" y="386"/>
			<point x="505" y="511" type="curve" smooth="yes"/>
			<point x="505" y="633"/>
			<point x="425" y="695"/>
			<point x="286" y="695" type="curve"/>
			<point x="83" y="695" type="line"/>
			<point x="83" y="-5" type="line"/>
		</contour>
		<contour>
			<point x="252" y="331" type="line"/>
			<point x="303" y="171"/>
			<point x="373" y="57"/>
			<point x="538" y="-40" type="curve"/>
			<point x="553" y="-23" type="line"/>
			<point x="452" y="116"/>
			<point x="403" y="224"/>
			<point x="353" y="353" type="curve"/>
		</contour>
		<contour>
			<point x="83" y="147" type="line"/>
			<point x="83" y="67" type="line"/>
			<point x="40" y="3" type="line"/>
			<point x="44" y="-5" type="line"/>
			<point x="98" y="-5" type="line"/>
			<point x="98" y="147" type="line"/>
		</contour>
		<contour>
			<point x="96" y="593" type="line"/>
			<point x="96" y="695" type="line"/>
			<point x="45" y="695" type="line"/>
			<point x="41" y="687" type="line"/>
			<point x="83" y="627" type="line"/>
			<point x="83" y="593" type="line"/>
		</contour>
	</outline>
</glyph>
<glyph name="S" format="2">
  <advance width="482"/>
  <unicode hex="0053"/>
  <outline>
    <contour>
      <point x="394" y="520" type="line"/>
      <point x="394" y="697" type="line"/>
      <point x="358" y="704"/>
      <point x="304" y="711"/>
      <point x="257" y="711" type="curve" smooth="yes"/>
      <point x="107" y="711"/>
      <point x="42" y="632"/>
      <point x="42" y="531" type="curve" smooth="yes"/>
      <point x="42" y="442"/>
      <point x="83" y="378"/>
      <point x="177" y="326" type="curve" smooth="yes"/>
      <point x="264" y="278" type="line" smooth="yes"/>
      <point x="331" y="241"/>
      <point x="358" y="215"/>
      <point x="359" y="160" type="curve" smooth="yes"/>
      <point x="361" y="74"/>
      <point x="302" y="43"/>
      <point x="239" y="43" type="curve" smooth="yes"/>
      <point x="220" y="43"/>
      <point x="198" y="45"/>
      <point x="179" y="54" type="curve"/>
      <point x="62" y="188" type="line"/>
      <point x="43" y="185" type="line"/>
      <point x="43" y="25" type="line"/>
      <point x="87" y="5"/>
      <point x="152" y="-10"/>
      <point x="214" y="-10" type="curve" smooth="yes"/>
      <point x="368" y="-10"/>
      <point x="447" y="83"/>
      <point x="447" y="190" type="curve" smooth="yes"/>
      <point x="447" y="291"/>
      <point x="388" y="339"/>
      <point x="287" y="395" type="curve" smooth="yes"/>
      <point x="195" y="446" type="line" smooth="yes"/>
      <point x="137" y="478"/>
      <point x="121" y="515"/>
      <point x="121" y="566" type="curve" smooth="yes"/>
      <point x="121" y="622"/>
      <point x="154" y="663"/>
      <point x="228" y="663" type="curve" smooth="yes"/>
      <point x="246" y="663"/>
      <point x="256" y="661"/>
      <point x="271" y="657" type="curve"/>
      <point x="375" y="518" type="line"/>
    </contour>
  </outline>
</glyph>
<glyph name="T" format="2">
  <advance width="554"/>
  <unicode hex="0054"/>
  <outline>
    <contour>
      <point x="224" y="152" type="line"/>
      <point x="224" y="70" type="line"/>
      <point x="171" y="8" type="line"/>
      <point x="175" y="0" type="line"/>
      <point x="374" y="0" type="line"/>
      <point x="378" y="8" type="line"/>
      <point x="324" y="70" type="line"/>
      <point x="324" y="152" type="line"/>
    </contour>
    <contour>
      <point x="324" y="0" type="line"/>
      <point x="324" y="700" type="line"/>
      <point x="224" y="700" type="line"/>
      <point x="224" y="0" type="line"/>
    </contour>
    <contour>
      <point x="14" y="483" type="line"/>
      <point x="31" y="476" type="line"/>
      <point x="149" y="650" type="line"/>
      <point x="274" y="650" type="line"/>
      <point x="274" y="700" type="line"/>
      <point x="48" y="700" type="line"/>
    </contour>
    <contour>
      <point x="534" y="483" type="line"/>
      <point x="500" y="700" type="line"/>
      <point x="274" y="700" type="line"/>
      <point x="274" y="650" type="line"/>
      <point x="399" y="650" type="line"/>
      <point x="517" y="476" type="line"/>
    </contour>
  </outline>
</glyph>
<glyph name="U" format="2">
  <advance width="555"/>
  <unicode hex="0055"/>
  <outline>
    <contour>
      <point x="172" y="598" type="line"/>
      <point x="172" y="622" type="line"/>
      <point x="226" y="692" type="line"/>
      <point x="222" y="700" type="line"/>
      <point x="30" y="700" type="line"/>
      <point x="26" y="692" type="line"/>
      <point x="68" y="632" type="line"/>
      <point x="68" y="598" type="line"/>
    </contour>
    <contour>
      <point x="433" y="700" type="line"/>
      <point x="433" y="222" type="line" smooth="yes"/>
      <point x="433" y="103"/>
      <point x="380" y="47"/>
      <point x="309" y="47" type="curve" smooth="yes"/>
      <point x="212" y="47"/>
      <point x="172" y="108"/>
      <point x="172" y="217" type="curve" smooth="yes"/>
      <point x="172" y="700" type="line"/>
      <point x="68" y="700" type="line"/>
      <point x="68" y="242" type="line" smooth="yes"/>
      <point x="68" y="87"/>
      <point x="131" y="-14"/>
      <point x="275" y="-16" type="curve" smooth="yes"/>
      <point x="419" y="-18"/>
      <point x="494" y="72"/>
      <point x="494" y="242" type="curve" smooth="yes"/>
      <point x="494" y="700" type="line"/>
    </contour>
    <contour>
      <point x="494" y="598" type="line"/>
      <point x="494" y="632" type="line"/>
      <point x="535" y="692" type="line"/>
      <point x="531" y="700" type="line"/>
      <point x="382" y="700" type="line"/>
      <point x="378" y="692" type="line"/>
      <point x="433" y="622" type="line"/>
      <point x="433" y="598" type="line"/>
    </contour>
  </outline>
</glyph>
<glyph name="V" format="2">
  <advance width="586"/>
  <unicode hex="0056"/>
  <outline>
    <contour>
      <point x="167" y="632" type="line"/>
      <point x="220" y="692" type="line"/>
      <point x="216" y="700" type="line"/>
      <point x="14" y="700" type="line"/>
      <point x="10" y="692" type="line"/>
      <point x="67" y="632" type="line"/>
    </contour>
    <contour>
      <point x="532" y="632" type="line"/>
      <point x="583" y="692" type="line"/>
      <point x="579" y="700" type="line"/>
      <point x="403" y="700" type="line"/>
      <point x="399" y="692" type="line"/>
      <point x="473" y="632" type="line"/>
    </contour>
    <contour>
      <point x="41" y="700" type="line"/>
      <point x="282" y="0" type="line"/>
      <point x="331" y="0" type="line"/>
      <point x="554" y="700" type="line"/>
      <point x="486" y="700" type="line"/>
      <point x="323" y="184" type="line"/>
      <point x="317" y="184" type="line"/>
      <point x="150" y="700" type="line"/>
    </contour>
  </outline>
</glyph>
<glyph name="W" format="2">
	<advance width="846"/>
	<unicode hex="0057"/>
	<outline>
		<contour>
			<point x="37" y="700" type="line"/>
			<point x="240" y="0" type="line"/>
			<point x="282" y="0" type="line"/>
			<point x="431" y="431" type="line"/>
			<point x="467" y="431" type="line"/>
			<point x="424" y="599" type="line"/>
			<point x="281" y="184" type="line"/>
			<point x="275" y="184" type="line"/>
			<point x="145" y="700" type="line"/>
		</contour>
		<contour>
			<point x="353" y="700" type="line"/>
			<point x="572" y="0" type="line"/>
			<point x="614" y="0" type="line"/>
			<point x="810" y="700" type="line"/>
			<point x="743" y="700" type="line"/>
			<point x="606" y="186" type="line"/>
			<point x="600" y="186" type="line"/>
			<point x="458" y="700" type="line"/>
		</contour>
		<contour>
			<point x="157" y="632" type="line"/>
			<point x="215" y="692" type="line"/>
			<point x="211" y="700" type="line"/>
			<point x="13" y="700" type="line"/>
			<point x="9" y="692" type="line"/>
			<point x="61" y="632" type="line"/>
		</contour>
		<contour>
			<point x="471" y="632" type="line"/>
			<point x="525" y="692" type="line"/>
			<point x="521" y="700" type="line"/>
			<point x="327" y="700" type="line"/>
			<point x="323" y="692" type="line"/>
			<point x="377" y="632" type="line"/>
		</contour>
		<contour>
			<point x="787" y="632" type="line"/>
			<point x="834" y="692" type="line"/>
			<point x="830" y="700" type="line"/>
			<point x="662" y="700" type="line"/>
			<point x="658" y="692" type="line"/>
			<point x="733" y="632" type="line"/>
		</contour>
	</outline>
</glyph>
<glyph name="X" format="2">
  <advance width="556"/>
  <unicode hex="0058"/>
  <outline>
    <contour>
      <point x="183" y="626" type="line"/>
      <point x="228" y="692" type="line"/>
      <point x="224" y="700" type="line"/>
      <point x="39" y="700" type="line"/>
      <point x="35" y="692" type="line"/>
      <point x="87" y="636" type="line"/>
    </contour>
    <contour>
      <point x="51" y="700" type="line"/>
      <point x="245" y="336" type="line"/>
      <point x="311" y="336" type="line"/>
      <point x="504" y="700" type="line"/>
      <point x="423" y="700" type="line"/>
      <point x="303" y="440" type="line"/>
      <point x="297" y="440" type="line"/>
      <point x="168" y="700" type="line"/>
    </contour>
    <contour>
      <point x="531" y="0" type="line"/>
      <point x="326" y="395" type="line"/>
      <point x="250" y="395" type="line"/>
      <point x="34" y="0" type="line"/>
      <point x="119" y="0" type="line"/>
      <point x="263" y="297" type="line"/>
      <point x="269" y="297" type="line"/>
      <point x="414" y="0" type="line"/>
    </contour>
    <contour>
      <point x="468" y="636" type="line"/>
      <point x="525" y="692" type="line"/>
      <point x="521" y="700" type="line"/>
      <point x="358" y="700" type="line"/>
      <point x="354" y="692" type="line"/>
      <point x="396" y="626" type="line"/>
    </contour>
    <contour>
      <point x="81" y="77" type="line"/>
      <point x="11" y="8" type="line"/>
      <point x="15" y="0" type="line"/>
      <point x="202" y="0" type="line"/>
      <point x="206" y="8" type="line"/>
      <point x="146" y="71" type="line"/>
    </contour>
    <contour>
      <point x="408" y="82" type="line"/>
      <point x="353" y="8" type="line"/>
      <point x="357" y="0" type="line"/>
      <point x="543" y="0" type="line"/>
      <point x="547" y="8" type="line"/>
      <point x="485" y="73" type="line"/>
    </contour>
  </outline>
</glyph>
<glyph name="Y" format="2">
  <advance width="508"/>
  <unicode hex="0059"/>
  <outline>
    <contour>
      <point x="203" y="152" type="line"/>
      <point x="203" y="72" type="line"/>
      <point x="160" y="8" type="line"/>
      <point x="164" y="0" type="line"/>
      <point x="343" y="0" type="line"/>
      <point x="347" y="8" type="line"/>
      <point x="303" y="72" type="line"/>
      <point x="303" y="152" type="line"/>
    </contour>
    <contour>
      <point x="303" y="0" type="line"/>
      <point x="303" y="350" type="line"/>
      <point x="203" y="350" type="line"/>
      <point x="203" y="0" type="line"/>
    </contour>
    <contour>
      <point x="20" y="700" type="line"/>
      <point x="224" y="293" type="line"/>
      <point x="281" y="295" type="line"/>
      <point x="478" y="700" type="line"/>
      <point x="411" y="700" type="line"/>
      <point x="278" y="410" type="line"/>
      <point x="272" y="410" type="line"/>
      <point x="134" y="700" type="line"/>
    </contour>
    <contour>
      <point x="434" y="623" type="line"/>
      <point x="501" y="692" type="line"/>
      <point x="497" y="700" type="line"/>
      <point x="323" y="700" type="line"/>
      <point x="319" y="692" type="line"/>
      <point x="376" y="618" type="line"/>
    </contour>
    <contour>
      <point x="143" y="618" type="line"/>
      <point x="198" y="692" type="line"/>
      <point x="194" y="700" type="line"/>
      <point x="8" y="700" type="line"/>
      <point x="4" y="692" type="line"/>
      <point x="66" y="627" type="line"/>
    </contour>
  </outline>
</glyph>
<glyph name="Z" format="2">
	<advance width="493"/>
	<unicode hex="005A"/>
	<outline>
		<contour>
			<point x="50" y="489" type="line"/>
			<point x="69" y="483" type="line"/>
			<point x="160" y="650" type="line"/>
			<point x="369" y="650" type="line"/>
			<point x="339" y="679" type="line"/>
			<point x="17" y="7" type="line"/>
			<point x="23" y="0" type="line"/>
			<point x="447" y="0" type="line"/>
			<point x="447" y="245" type="line"/>
			<point x="427" y="248" type="line"/>
			<point x="346" y="50" type="line"/>
			<point x="92" y="50" type="line"/>
			<point x="135" y="23" type="line"/>
			<point x="449" y="692" type="line"/>
			<point x="441" y="700" type="line"/>
			<point x="70" y="700" type="line"/>
		</contour>
	</outline>
</glyph>
<glyph name="a" format="2">
	<advance width="491"/>
	<unicode hex="0061"/>
	<outline>
		<contour>
			<point x="388" y="-14" type="curve" smooth="yes"/>
			<point x="428" y="-14"/>
			<point x="459" y="5"/>
			<point x="475" y="51" type="curve"/>
			<point x="471" y="57" type="line"/>
			<point x="458" y="52"/>
			<point x="451" y="49"/>
			<point x="439" y="49" type="curve" smooth="yes"/>
			<point x="416" y="49"/>
			<point x="406" y="64"/>
			<point x="406" y="94" type="curve" smooth="yes"/>
			<point x="406" y="368" type="line" smooth="yes"/>
			<point x="406" y="470"/>
			<point x="363" y="540"/>
			<point x="242" y="540" type="curve" smooth="yes"/>
			<point x="142" y="540"/>
			<point x="69" y="489"/>
			<point x="69" y="413" type="curve" smooth="yes"/>
			<point x="69" y="388"/>
			<point x="80" y="373"/>
			<point x="101" y="373" type="curve" smooth="yes"/>
			<point x="138" y="373"/>
			<point x="161" y="408"/>
			<point x="172" y="510" type="curve"/>
			<point x="163" y="499" type="line"/>
			<point x="221" y="499" type="line" smooth="yes"/>
			<point x="291" y="499"/>
			<point x="310" y="463"/>
			<point x="310" y="396" type="curve" smooth="yes"/>
			<point x="310" y="70" type="line" smooth="yes"/>
			<point x="310" y="27"/>
			<point x="339" y="-14"/>
		</contour>
		<contour>
			<point x="169" y="-16" type="curve" smooth="yes"/>
			<point x="249" y="-16"/>
			<point x="295" y="27"/>
			<point x="341" y="101" type="curve"/>
			<point x="341" y="118" type="line"/>
			<point x="300" y="80"/>
			<point x="269" y="52"/>
			<point x="218" y="52" type="curve" smooth="yes"/>
			<point x="171" y="52"/>
			<point x="136" y="83"/>
			<point x="136" y="136" type="curve" smooth="yes"/>
			<point x="136" y="184"/>
			<point x="161" y="233"/>
			<point x="240" y="270" type="curve" smooth="yes"/>
			<point x="339" y="317" type="line"/>
			<point x="337" y="349" type="line"/>
			<point x="217" y="309" type="line" smooth="yes"/>
			<point x="103" y="270"/>
			<point x="37" y="215"/>
			<point x="37" y="123" type="curve" smooth="yes"/>
			<point x="37" y="22"/>
			<point x="110" y="-16"/>
		</contour>
	</outline>
</glyph>
<glyph name="b" format="2">
	<advance width="492"/>
	<unicode hex="0062"/>
	<outline>
		<contour>
			<point x="45" y="-8" type="line"/>
			<point x="175" y="14" type="line"/>
			<point x="175" y="751" type="line"/>
			<point x="168" y="759" type="line"/>
			<point x="31" y="701" type="line"/>
			<point x="31" y="693" type="line"/>
			<point x="79" y="663" type="line"/>
			<point x="79" y="29" type="line"/>
			<point x="88" y="92" type="line"/>
			<point x="39" y="11" type="line"/>
		</contour>
		<contour>
			<point x="218" y="-16" type="curve" smooth="yes"/>
			<point x="352" y="-16"/>
			<point x="471" y="122"/>
			<point x="471" y="313" type="curve" smooth="yes"/>
			<point x="471" y="459"/>
			<point x="422" y="540"/>
			<point x="318" y="540" type="curve" smooth="yes"/>
			<point x="237" y="540"/>
			<point x="186" y="497"/>
			<point x="137" y="455" type="curve"/>
			<point x="140" y="429" type="line"/>
			<point x="190" y="464"/>
			<point x="232" y="477"/>
			<point x="280" y="477" type="curve" smooth="yes"/>
			<point x="344" y="477"/>
			<point x="369" y="423"/>
			<point x="369" y="283" type="curve" smooth="yes"/>
			<point x="369" y="94"/>
			<point x="313" y="46"/>
			<point x="247" y="46" type="curve" smooth="yes"/>
			<point x="197" y="46"/>
			<point x="158" y="57"/>
			<point x="123" y="78" type="curve"/>
			<point x="89" y="17" type="line"/>
			<point x="124" y="-2"/>
			<point x="173" y="-16"/>
		</contour>
	</outline>
</glyph>
<glyph name="c" format="2">
  <advance width="421"/>
  <unicode hex="0063"/>
  <outline>
    <contour>
      <point x="235" y="540" type="curve" smooth="yes"/>
      <point x="98" y="540"/>
      <point x="33" y="411"/>
      <point x="33" y="269" type="curve" smooth="yes"/>
      <point x="33" y="108"/>
      <point x="107" y="-16"/>
      <point x="220" y="-16" type="curve" smooth="yes"/>
      <point x="309" y="-16"/>
      <point x="374" y="49"/>
      <point x="394" y="177" type="curve"/>
      <point x="371" y="184" type="line"/>
      <point x="348" y="102"/>
      <point x="321" y="57"/>
      <point x="258" y="57" type="curve" smooth="yes"/>
      <point x="183" y="57"/>
      <point x="140" y="137"/>
      <point x="140" y="269" type="curve" smooth="yes"/>
      <point x="140" y="423"/>
      <point x="162" y="503"/>
      <point x="257" y="503" type="curve" smooth="yes"/>
      <point x="280" y="503" type="line"/>
      <point x="270" y="519" type="line"/>
      <point x="280" y="432"/>
      <point x="301" y="380"/>
      <point x="344" y="380" type="curve" smooth="yes"/>
      <point x="366" y="380"/>
      <point x="382" y="394"/>
      <point x="382" y="423" type="curve" smooth="yes"/>
      <point x="382" y="487"/>
      <point x="328" y="540"/>
    </contour>
  </outline>
</glyph>
<glyph name="d" format="2">
  <advance width="515"/>
  <unicode hex="0064"/>
  <outline>
    <contour>
      <point x="442" y="750" type="line"/>
      <point x="438" y="755" type="line"/>
      <point x="295" y="700" type="line"/>
      <point x="295" y="695" type="line"/>
      <point x="346" y="662" type="line"/>
      <point x="346" y="0" type="line"/>
      <point x="482" y="0" type="line"/>
      <point x="484" y="5" type="line"/>
      <point x="442" y="80" type="line"/>
    </contour>
    <contour>
      <point x="312" y="540" type="curve" smooth="yes"/>
      <point x="159" y="540"/>
      <point x="47" y="409"/>
      <point x="47" y="221" type="curve" smooth="yes"/>
      <point x="47" y="73"/>
      <point x="93" y="-16"/>
      <point x="200" y="-16" type="curve" smooth="yes"/>
      <point x="276" y="-16"/>
      <point x="334" y="29"/>
      <point x="389" y="89" type="curve"/>
      <point x="378" y="118" type="line"/>
      <point x="328" y="72"/>
      <point x="286" y="50"/>
      <point x="238" y="50" type="curve" smooth="yes"/>
      <point x="176" y="50"/>
      <point x="150" y="104"/>
      <point x="150" y="251" type="curve" smooth="yes"/>
      <point x="150" y="423"/>
      <point x="202" y="474"/>
      <point x="277" y="474" type="curve" smooth="yes"/>
      <point x="318" y="474"/>
      <point x="358" y="460"/>
      <point x="395" y="437" type="curve"/>
      <point x="422" y="509" type="line"/>
      <point x="392" y="529"/>
      <point x="353" y="540"/>
    </contour>
  </outline>
</glyph>
<glyph name="e" format="2">
  <advance width="442"/>
  <unicode hex="0065"/>
  <outline>
    <contour>
      <point x="402" y="176" type="curve"/>
      <point x="379" y="182" type="line"/>
      <point x="361" y="104"/>
      <point x="320" y="56"/>
      <point x="262" y="56" type="curve" smooth="yes"/>
      <point x="188" y="56"/>
      <point x="139" y="119"/>
      <point x="139" y="262" type="curve" smooth="yes"/>
      <point x="139" y="298" type="line"/>
      <point x="129" y="283" type="line"/>
      <point x="402" y="283" type="line"/>
      <point x="402" y="468"/>
      <point x="343" y="540"/>
      <point x="241" y="540" type="curve" smooth="yes"/>
      <point x="104" y="540"/>
      <point x="33" y="422"/>
      <point x="33" y="257" type="curve" smooth="yes"/>
      <point x="33" y="91"/>
      <point x="113" y="-16"/>
      <point x="228" y="-16" type="curve" smooth="yes"/>
      <point x="308" y="-16"/>
      <point x="382" y="41"/>
    </contour>
    <contour>
      <point x="230" y="495" type="curve" smooth="yes"/>
      <point x="278" y="495"/>
      <point x="300" y="445"/>
      <point x="300" y="333" type="curve"/>
      <point x="129" y="333" type="line"/>
      <point x="139" y="323" type="line"/>
      <point x="139" y="425"/>
      <point x="168" y="495"/>
    </contour>
  </outline>
</glyph>
<glyph name="f" format="2">
	<advance width="298"/>
	<unicode hex="0066"/>
	<outline>
		<contour>
			<point x="27" y="482" type="line"/>
			<point x="280" y="482" type="line"/>
			<point x="280" y="530" type="line"/>
			<point x="27" y="530" type="line"/>
		</contour>
		<contour>
			<point x="194" y="0" type="line"/>
			<point x="194" y="504" type="line"/>
			<point x="98" y="504" type="line"/>
			<point x="98" y="0" type="line"/>
		</contour>
		<contour>
			<point x="194" y="152" type="line"/>
			<point x="98" y="152" type="line"/>
			<point x="98" y="72" type="line"/>
			<point x="54" y="8" type="line"/>
			<point x="58" y="0" type="line"/>
			<point x="233" y="0" type="line"/>
			<point x="237" y="8" type="line"/>
			<point x="194" y="72" type="line"/>
		</contour>
		<contour>
			<point x="98" y="516" type="curve"/>
			<point x="186" y="516" type="line"/>
			<point x="163" y="696" type="line"/>
			<point x="193" y="671"/>
			<point x="220" y="660"/>
			<point x="243" y="660" type="curve" smooth="yes"/>
			<point x="268" y="660"/>
			<point x="287" y="672"/>
			<point x="287" y="695" type="curve"/>
			<point x="287" y="725"/>
			<point x="255" y="746"/>
			<point x="213" y="746" type="curve" smooth="yes"/>
			<point x="130" y="746"/>
			<point x="98" y="672"/>
		</contour>
	</outline>
</glyph>
<glyph name="g" format="2">
	<advance width="508"/>
	<unicode hex="0067"/>
	<outline>
		<contour>
			<point x="231" y="-243" type="curve" smooth="yes"/>
			<point x="391" y="-243"/>
			<point x="493" y="-161"/>
			<point x="493" y="-74" type="curve" smooth="yes"/>
			<point x="493" y="-10"/>
			<point x="437" y="24"/>
			<point x="357" y="38" type="curve" smooth="yes"/>
			<point x="206" y="64" type="line" smooth="yes"/>
			<point x="164" y="71"/>
			<point x="146" y="83"/>
			<point x="146" y="109" type="curve" smooth="yes"/>
			<point x="146" y="134"/>
			<point x="170" y="147"/>
			<point x="204" y="147" type="curve"/>
			<point x="154" y="207" type="line"/>
			<point x="154" y="159" type="line"/>
			<point x="89" y="153"/>
			<point x="52" y="122"/>
			<point x="52" y="71" type="curve" smooth="yes"/>
			<point x="52" y="27"/>
			<point x="95" y="-9"/>
			<point x="147" y="-18" type="curve" smooth="yes"/>
			<point x="336" y="-51" type="line" smooth="yes"/>
			<point x="383" y="-59"/>
			<point x="416" y="-86"/>
			<point x="416" y="-121" type="curve" smooth="yes"/>
			<point x="416" y="-168"/>
			<point x="389" y="-196"/>
			<point x="260" y="-196" type="curve" smooth="yes"/>
			<point x="173" y="-196"/>
			<point x="120" y="-161"/>
			<point x="120" y="-104" type="curve" smooth="yes"/>
			<point x="120" y="-64"/>
			<point x="154" y="-31"/>
			<point x="208" y="-23" type="curve"/>
			<point x="183" y="-3" type="line"/>
			<point x="139" y="0" type="line"/>
			<point x="139" y="-21" type="line"/>
			<point x="70" y="-31"/>
			<point x="24" y="-70"/>
			<point x="24" y="-122" type="curve" smooth="yes"/>
			<point x="24" y="-195"/>
			<point x="93" y="-243"/>
		</contour>
		<contour>
			<point x="249" y="140" type="curve" smooth="yes"/>
			<point x="358" y="140"/>
			<point x="443" y="224"/>
			<point x="443" y="337" type="curve" smooth="yes"/>
			<point x="443" y="459"/>
			<point x="363" y="540"/>
			<point x="249" y="540" type="curve" smooth="yes"/>
			<point x="142" y="540"/>
			<point x="54" y="459"/>
			<point x="54" y="337" type="curve" smooth="yes"/>
			<point x="54" y="224"/>
			<point x="142" y="140"/>
		</contour>
		<contour>
			<point x="249" y="180" type="curve" smooth="yes"/>
			<point x="188" y="180"/>
			<point x="159" y="237"/>
			<point x="159" y="337" type="curve" smooth="yes"/>
			<point x="159" y="450"/>
			<point x="188" y="503"/>
			<point x="249" y="503" type="curve" smooth="yes"/>
			<point x="308" y="503"/>
			<point x="338" y="450"/>
			<point x="338" y="337" type="curve" smooth="yes"/>
			<point x="338" y="237"/>
			<point x="308" y="180"/>
		</contour>
		<contour>
			<point x="401" y="456" type="curve"/>
			<point x="441" y="456" type="line" smooth="yes"/>
			<point x="489" y="456"/>
			<point x="522" y="484"/>
			<point x="522" y="520" type="curve" smooth="yes"/>
			<point x="522" y="545"/>
			<point x="507" y="562"/>
			<point x="476" y="562" type="curve" smooth="yes"/>
			<point x="434" y="562"/>
			<point x="406" y="510"/>
		</contour>
	</outline>
</glyph>
<glyph name="h" format="2">
  <advance width="575"/>
  <unicode hex="0068"/>
  <outline>
    <contour>
      <point x="195" y="751" type="line"/>
      <point x="49" y="696" type="line"/>
      <point x="49" y="691" type="line"/>
      <point x="101" y="648" type="line"/>
      <point x="101" y="0" type="line"/>
      <point x="197" y="0" type="line"/>
      <point x="197" y="746" type="line"/>
    </contour>
    <contour>
      <point x="101" y="152" type="line"/>
      <point x="101" y="72" type="line"/>
      <point x="58" y="8" type="line"/>
      <point x="62" y="0" type="line"/>
      <point x="237" y="0" type="line"/>
      <point x="241" y="8" type="line"/>
      <point x="197" y="72" type="line"/>
      <point x="197" y="152" type="line"/>
    </contour>
    <contour>
      <point x="480" y="0" type="line"/>
      <point x="480" y="442" type="line" smooth="yes"/>
      <point x="480" y="509"/>
      <point x="445" y="540"/>
      <point x="395" y="540" type="curve" smooth="yes"/>
      <point x="354" y="540"/>
      <point x="322" y="528"/>
      <point x="287" y="507" type="curve" smooth="yes"/>
      <point x="168" y="434" type="line"/>
      <point x="168" y="390" type="line"/>
      <point x="246" y="437" type="line" smooth="yes"/>
      <point x="279" y="457"/>
      <point x="306" y="467"/>
      <point x="337" y="467" type="curve" smooth="yes"/>
      <point x="368" y="467"/>
      <point x="384" y="447"/>
      <point x="384" y="411" type="curve" smooth="yes"/>
      <point x="384" y="0" type="line"/>
    </contour>
    <contour>
      <point x="384" y="152" type="line"/>
      <point x="384" y="72" type="line"/>
      <point x="343" y="8" type="line"/>
      <point x="347" y="0" type="line"/>
      <point x="520" y="0" type="line"/>
      <point x="524" y="8" type="line"/>
      <point x="480" y="72" type="line"/>
      <point x="480" y="152" type="line"/>
    </contour>
  </outline>
</glyph>
<glyph name="i" format="2">
	<advance width="270"/>
	<unicode hex="0069"/>
	<outline>
		<contour>
			<point x="133" y="590" type="curve" smooth="yes"/>
			<point x="164" y="590"/>
			<point x="188" y="616"/>
			<point x="188" y="653" type="curve" smooth="yes"/>
			<point x="188" y="693"/>
			<point x="164" y="718"/>
			<point x="133" y="718" type="curve" smooth="yes"/>
			<point x="102" y="718"/>
			<point x="78" y="693"/>
			<point x="78" y="653" type="curve" smooth="yes"/>
			<point x="78" y="616"/>
			<point x="102" y="590"/>
		</contour>
		<contour>
			<point x="180" y="542" type="line"/>
			<point x="34" y="488" type="line"/>
			<point x="34" y="483" type="line"/>
			<point x="86" y="440" type="line"/>
			<point x="86" y="0" type="line"/>
			<point x="182" y="0" type="line"/>
			<point x="182" y="538" type="line"/>
		</contour>
		<contour>
			<point x="86" y="152" type="line"/>
			<point x="86" y="72" type="line"/>
			<point x="43" y="8" type="line"/>
			<point x="47" y="0" type="line"/>
			<point x="222" y="0" type="line"/>
			<point x="226" y="8" type="line"/>
			<point x="182" y="72" type="line"/>
			<point x="182" y="152" type="line"/>
		</contour>
	</outline>
</glyph>
<glyph name="j" format="2">
  <advance width="248"/>
  <unicode hex="006A"/>
  <outline>
    <contour>
      <point x="124" y="590" type="curve" smooth="yes"/>
      <point x="155" y="590"/>
      <point x="179" y="616"/>
      <point x="179" y="653" type="curve" smooth="yes"/>
      <point x="179" y="693"/>
      <point x="155" y="718"/>
      <point x="124" y="718" type="curve" smooth="yes"/>
      <point x="93" y="718"/>
      <point x="69" y="693"/>
      <point x="69" y="653" type="curve" smooth="yes"/>
      <point x="69" y="616"/>
      <point x="93" y="590"/>
    </contour>
    <contour>
      <point x="170" y="542" type="line"/>
      <point x="24" y="487" type="line"/>
      <point x="24" y="482" type="line"/>
      <point x="76" y="439" type="line"/>
      <point x="76" y="58" type="line" smooth="yes"/>
      <point x="76" y="-42"/>
      <point x="97" y="-113"/>
      <point x="131" y="-190" type="curve"/>
      <point x="100" y="-159"/>
      <point x="68" y="-149"/>
      <point x="43" y="-149" type="curve" smooth="yes"/>
      <point x="18" y="-149"/>
      <point x="3" y="-163"/>
      <point x="3" y="-182" type="curve" smooth="yes"/>
      <point x="3" y="-212"/>
      <point x="39" y="-228"/>
      <point x="77" y="-228" type="curve" smooth="yes"/>
      <point x="163" y="-228"/>
      <point x="172" y="-129"/>
      <point x="172" y="44" type="curve" smooth="yes"/>
      <point x="172" y="537" type="line"/>
    </contour>
  </outline>
</glyph>
<glyph name="k" format="2">
  <advance width="515"/>
  <unicode hex="006B"/>
  <outline>
    <contour>
      <point x="82" y="152" type="line"/>
      <point x="82" y="72" type="line"/>
      <point x="39" y="8" type="line"/>
      <point x="43" y="0" type="line"/>
      <point x="218" y="0" type="line"/>
      <point x="222" y="8" type="line"/>
      <point x="178" y="72" type="line"/>
      <point x="178" y="152" type="line"/>
    </contour>
    <contour>
      <point x="175" y="753" type="line"/>
      <point x="30" y="699" type="line"/>
      <point x="30" y="694" type="line"/>
      <point x="82" y="651" type="line"/>
      <point x="82" y="0" type="line"/>
      <point x="178" y="0" type="line"/>
      <point x="178" y="749" type="line"/>
    </contour>
    <contour>
      <point x="472" y="524" type="line"/>
      <point x="470" y="530" type="line"/>
      <point x="307" y="530" type="line"/>
      <point x="305" y="524" type="line"/>
      <point x="366" y="450" type="line"/>
      <point x="369" y="498" type="line"/>
      <point x="156" y="247" type="line"/>
      <point x="208" y="277" type="line"/>
      <point x="167" y="277" type="line"/>
      <point x="167" y="190" type="line"/>
    </contour>
    <contour>
      <point x="332" y="0" type="line"/>
      <point x="513" y="0" type="line"/>
      <point x="517" y="6" type="line"/>
      <point x="304" y="352" type="line"/>
      <point x="243" y="296" type="line"/>
      <point x="387" y="33" type="line"/>
      <point x="373" y="65" type="line"/>
      <point x="328" y="7" type="line"/>
    </contour>
  </outline>
</glyph>
<glyph name="l" format="2">
  <advance width="282"/>
  <unicode hex="006C"/>
  <outline>
    <contour>
      <point x="188" y="753" type="line"/>
      <point x="42" y="698" type="line"/>
      <point x="42" y="693" type="line"/>
      <point x="94" y="650" type="line"/>
      <point x="94" y="0" type="line"/>
      <point x="190" y="0" type="line"/>
      <point x="190" y="748" type="line"/>
    </contour>
    <contour>
      <point x="94" y="152" type="line"/>
      <point x="94" y="72" type="line"/>
      <point x="51" y="8" type="line"/>
      <point x="55" y="0" type="line"/>
      <point x="230" y="0" type="line"/>
      <point x="234" y="8" type="line"/>
      <point x="190" y="72" type="line"/>
      <point x="190" y="152" type="line"/>
    </contour>
  </outline>
</glyph>
<glyph name="m" format="2">
  <advance width="797"/>
  <unicode hex="006D"/>
  <outline>
    <contour>
      <point x="176" y="543" type="line"/>
      <point x="36" y="488" type="line"/>
      <point x="36" y="483" type="line"/>
      <point x="88" y="440" type="line"/>
      <point x="88" y="0" type="line"/>
      <point x="184" y="0" type="line"/>
      <point x="184" y="439" type="line"/>
      <point x="180" y="439" type="line"/>
      <point x="180" y="538" type="line"/>
    </contour>
    <contour>
      <point x="452" y="0" type="line"/>
      <point x="452" y="442" type="line" smooth="yes"/>
      <point x="452" y="509"/>
      <point x="417" y="540"/>
      <point x="370" y="540" type="curve" smooth="yes"/>
      <point x="328" y="540"/>
      <point x="301" y="529"/>
      <point x="264" y="506" type="curve" smooth="yes"/>
      <point x="143" y="433" type="line"/>
      <point x="143" y="390" type="line"/>
      <point x="224" y="438" type="line" smooth="yes"/>
      <point x="257" y="458"/>
      <point x="281" y="469"/>
      <point x="312" y="469" type="curve" smooth="yes"/>
      <point x="343" y="469"/>
      <point x="359" y="449"/>
      <point x="359" y="413" type="curve" smooth="yes"/>
      <point x="359" y="0" type="line"/>
    </contour>
    <contour>
      <point x="88" y="152" type="line"/>
      <point x="88" y="72" type="line"/>
      <point x="45" y="8" type="line"/>
      <point x="49" y="0" type="line"/>
      <point x="222" y="0" type="line"/>
      <point x="226" y="8" type="line"/>
      <point x="184" y="72" type="line"/>
      <point x="184" y="152" type="line"/>
    </contour>
    <contour>
      <point x="359" y="152" type="line"/>
      <point x="359" y="69" type="line"/>
      <point x="321" y="8" type="line"/>
      <point x="325" y="0" type="line"/>
      <point x="489" y="0" type="line"/>
      <point x="493" y="8" type="line"/>
      <point x="452" y="69" type="line"/>
      <point x="452" y="152" type="line"/>
    </contour>
    <contour>
      <point x="717" y="0" type="line"/>
      <point x="717" y="442" type="line" smooth="yes"/>
      <point x="717" y="509"/>
      <point x="682" y="540"/>
      <point x="632" y="540" type="curve" smooth="yes"/>
      <point x="590" y="540"/>
      <point x="563" y="529"/>
      <point x="526" y="506" type="curve" smooth="yes"/>
      <point x="405" y="433" type="line"/>
      <point x="405" y="390" type="line"/>
      <point x="486" y="438" type="line" smooth="yes"/>
      <point x="519" y="458"/>
      <point x="543" y="469"/>
      <point x="574" y="469" type="curve" smooth="yes"/>
      <point x="605" y="469"/>
      <point x="621" y="449"/>
      <point x="621" y="413" type="curve" smooth="yes"/>
      <point x="621" y="0" type="line"/>
    </contour>
    <contour>
      <point x="621" y="152" type="line"/>
      <point x="621" y="72" type="line"/>
      <point x="580" y="8" type="line"/>
      <point x="584" y="0" type="line"/>
      <point x="757" y="0" type="line"/>
      <point x="761" y="8" type="line"/>
      <point x="717" y="72" type="line"/>
      <point x="717" y="152" type="line"/>
    </contour>
  </outline>
</glyph>
<glyph name="n" format="2">
  <advance width="545"/>
  <unicode hex="006E"/>
  <outline>
    <contour>
      <point x="176" y="543" type="line"/>
      <point x="36" y="488" type="line"/>
      <point x="36" y="483" type="line"/>
      <point x="88" y="440" type="line"/>
      <point x="88" y="0" type="line"/>
      <point x="184" y="0" type="line"/>
      <point x="184" y="439" type="line"/>
      <point x="180" y="439" type="line"/>
      <point x="180" y="538" type="line"/>
    </contour>
    <contour>
      <point x="88" y="152" type="line"/>
      <point x="88" y="72" type="line"/>
      <point x="45" y="8" type="line"/>
      <point x="49" y="0" type="line"/>
      <point x="222" y="0" type="line"/>
      <point x="226" y="8" type="line"/>
      <point x="184" y="72" type="line"/>
      <point x="184" y="152" type="line"/>
    </contour>
    <contour>
      <point x="369" y="152" type="line"/>
      <point x="369" y="72" type="line"/>
      <point x="328" y="8" type="line"/>
      <point x="332" y="0" type="line"/>
      <point x="505" y="0" type="line"/>
      <point x="509" y="8" type="line"/>
      <point x="465" y="72" type="line"/>
      <point x="465" y="152" type="line"/>
    </contour>
    <contour>
      <point x="466" y="0" type="line"/>
      <point x="466" y="442" type="line" smooth="yes"/>
      <point x="466" y="509"/>
      <point x="431" y="540"/>
      <point x="381" y="540" type="curve" smooth="yes"/>
      <point x="340" y="540"/>
      <point x="308" y="528"/>
      <point x="273" y="507" type="curve" smooth="yes"/>
      <point x="154" y="434" type="line"/>
      <point x="154" y="390" type="line"/>
      <point x="232" y="437" type="line" smooth="yes"/>
      <point x="265" y="457"/>
      <point x="292" y="467"/>
      <point x="323" y="467" type="curve" smooth="yes"/>
      <point x="354" y="467"/>
      <point x="370" y="447"/>
      <point x="370" y="411" type="curve" smooth="yes"/>
      <point x="370" y="0" type="line"/>
    </contour>
  </outline>
</glyph>
<glyph name="o" format="2">
	<advance width="500"/>
	<unicode hex="006F"/>
	<outline>
		<contour>
			<point x="247" y="-16" type="curve" smooth="yes"/>
			<point x="374" y="-16"/>
			<point x="460" y="98"/>
			<point x="460" y="267" type="curve" smooth="yes"/>
			<point x="460" y="426"/>
			<point x="374" y="540"/>
			<point x="247" y="540" type="curve" smooth="yes"/>
			<point x="120" y="540"/>
			<point x="34" y="426"/>
			<point x="34" y="267" type="curve" smooth="yes"/>
			<point x="34" y="98"/>
			<point x="120" y="-16"/>
		</contour>
		<contour>
			<point x="350" y="267" type="curve" smooth="yes"/>
			<point x="350" y="77"/>
			<point x="307" y="25"/>
			<point x="247" y="25" type="curve" smooth="yes"/>
			<point x="186" y="25"/>
			<point x="144" y="77"/>
			<point x="144" y="267" type="curve" smooth="yes"/>
			<point x="144" y="446"/>
			<point x="186" y="498"/>
			<point x="247" y="498" type="curve" smooth="yes"/>
			<point x="307" y="498"/>
			<point x="350" y="446"/>
		</contour>
	</outline>
</glyph>
<glyph name="p" format="2">
  <advance width="518"/>
  <unicode hex="0070"/>
  <outline>
    <contour>
      <point x="77" y="-68" type="line"/>
      <point x="77" y="-148" type="line"/>
      <point x="34" y="-212" type="line"/>
      <point x="38" y="-220" type="line"/>
      <point x="213" y="-220" type="line"/>
      <point x="217" y="-212" type="line"/>
      <point x="173" y="-148" type="line"/>
      <point x="173" y="-68" type="line"/>
    </contour>
    <contour>
      <point x="33" y="489" type="line"/>
      <point x="31" y="480" type="line"/>
      <point x="91" y="438" type="line"/>
      <point x="77" y="486" type="line"/>
      <point x="77" y="-86" type="line"/>
      <point x="173" y="-86" type="line"/>
      <point x="173" y="473" type="line"/>
      <point x="171" y="473" type="line"/>
      <point x="171" y="539" type="line"/>
      <point x="169" y="542" type="line"/>
    </contour>
    <contour>
      <point x="218" y="-16" type="curve" smooth="yes"/>
      <point x="352" y="-16"/>
      <point x="471" y="122"/>
      <point x="471" y="313" type="curve" smooth="yes"/>
      <point x="471" y="459"/>
      <point x="422" y="540"/>
      <point x="318" y="540" type="curve" smooth="yes"/>
      <point x="237" y="540"/>
      <point x="186" y="497"/>
      <point x="137" y="455" type="curve"/>
      <point x="140" y="429" type="line"/>
      <point x="190" y="464"/>
      <point x="232" y="477"/>
      <point x="280" y="477" type="curve" smooth="yes"/>
      <point x="344" y="477"/>
      <point x="369" y="423"/>
      <point x="369" y="283" type="curve" smooth="yes"/>
      <point x="369" y="94"/>
      <point x="313" y="46"/>
      <point x="247" y="46" type="curve" smooth="yes"/>
      <point x="197" y="46"/>
      <point x="158" y="61"/>
      <point x="123" y="83" type="curve"/>
      <point x="89" y="17" type="line"/>
      <point x="124" y="-2"/>
      <point x="173" y="-16"/>
    </contour>
  </outline>
</glyph>
<glyph name="q" format="2">
  <advance width="496"/>
  <unicode hex="0071"/>
  <outline>
    <contour>
      <point x="419" y="-82" type="line"/>
      <point x="323" y="-82" type="line"/>
      <point x="323" y="-242" type="line"/>
      <point x="458" y="-195" type="line"/>
      <point x="462" y="-187" type="line"/>
      <point x="419" y="-142" type="line"/>
    </contour>
    <contour>
      <point x="318" y="463"/>
      <point x="328" y="-97"/>
      <point x="323" y="-100" type="curve"/>
      <point x="419" y="-100" type="line"/>
      <point x="419" y="451" type="line"/>
      <point x="465" y="502" type="line"/>
      <point x="463" y="511" type="line"/>
      <point x="378" y="528" type="line" smooth="yes"/>
      <point x="342" y="535"/>
      <point x="312" y="540"/>
      <point x="279" y="540" type="curve" smooth="yes"/>
      <point x="137" y="540"/>
      <point x="30" y="410"/>
      <point x="30" y="221" type="curve" smooth="yes"/>
      <point x="30" y="75"/>
      <point x="79" y="-16"/>
      <point x="178" y="-16" type="curve" smooth="yes"/>
      <point x="234" y="-16"/>
      <point x="295" y="10"/>
      <point x="334" y="43" type="curve"/>
      <point x="334" y="84" type="line"/>
      <point x="303" y="64"/>
      <point x="259" y="47"/>
      <point x="220" y="47" type="curve" smooth="yes"/>
      <point x="152" y="47"/>
      <point x="129" y="111"/>
      <point x="129" y="251" type="curve" smooth="yes"/>
      <point x="129" y="429"/>
      <point x="168" y="475"/>
      <point x="250" y="475" type="curve" smooth="yes"/>
      <point x="275" y="475"/>
      <point x="299" y="472"/>
      <point x="323" y="466" type="curve"/>
    </contour>
  </outline>
</glyph>
<glyph name="r" format="2">
	<advance width="335"/>
	<unicode hex="0072"/>
	<outline>
		<contour>
			<point x="79" y="152" type="line"/>
			<point x="79" y="72" type="line"/>
			<point x="36" y="8" type="line"/>
			<point x="40" y="0" type="line"/>
			<point x="247" y="0" type="line"/>
			<point x="251" y="8" type="line"/>
			<point x="175" y="75" type="line"/>
			<point x="175" y="152" type="line"/>
		</contour>
		<contour>
			<point x="139" y="542" type="line"/>
			<point x="27" y="488" type="line"/>
			<point x="27" y="483" type="line"/>
			<point x="79" y="440" type="line"/>
			<point x="79" y="0" type="line"/>
			<point x="175" y="0" type="line"/>
			<point x="175" y="415" type="line"/>
			<point x="172" y="425" type="line"/>
			<point x="142" y="539" type="line"/>
		</contour>
		<contour>
			<point x="147" y="419" type="curve"/>
			<point x="175" y="344" type="line"/>
			<point x="182" y="453" type="line"/>
			<point x="205" y="445"/>
			<point x="230" y="443"/>
			<point x="254" y="443" type="curve" smooth="yes"/>
			<point x="298" y="443"/>
			<point x="333" y="463"/>
			<point x="333" y="497" type="curve" smooth="yes"/>
			<point x="333" y="524"/>
			<point x="315" y="540"/>
			<point x="280" y="540" type="curve" smooth="yes"/>
			<point x="224" y="540"/>
			<point x="167" y="501"/>
		</contour>
	</outline>
</glyph>
<glyph name="s" format="2">
	<advance width="418"/>
	<unicode hex="0073"/>
	<outline>
		<contour>
			<point x="339" y="381" type="line"/>
			<point x="339" y="527" type="line"/>
			<point x="302" y="535"/>
			<point x="269" y="540"/>
			<point x="215" y="540" type="curve" smooth="yes"/>
			<point x="94" y="540"/>
			<point x="47" y="468"/>
			<point x="47" y="399" type="curve" smooth="yes"/>
			<point x="47" y="328"/>
			<point x="79" y="282"/>
			<point x="161" y="239" type="curve" smooth="yes"/>
			<point x="205" y="216" type="line" smooth="yes"/>
			<point x="275" y="180"/>
			<point x="296" y="161"/>
			<point x="296" y="116" type="curve" smooth="yes"/>
			<point x="296" y="63"/>
			<point x="256" y="34"/>
			<point x="205" y="34" type="curve" smooth="yes"/>
			<point x="181" y="34"/>
			<point x="168" y="39"/>
			<point x="150" y="46" type="curve"/>
			<point x="66" y="175" type="line"/>
			<point x="52" y="173" type="line"/>
			<point x="52" y="18" type="line"/>
			<point x="81" y="-1"/>
			<point x="143" y="-16"/>
			<point x="197" y="-16" type="curve" smooth="yes"/>
			<point x="312" y="-16"/>
			<point x="376" y="46"/>
			<point x="376" y="144" type="curve" smooth="yes"/>
			<point x="376" y="214"/>
			<point x="335" y="263"/>
			<point x="252" y="302" type="curve" smooth="yes"/>
			<point x="207" y="323" type="line" smooth="yes"/>
			<point x="136" y="356"/>
			<point x="121" y="381"/>
			<point x="121" y="421" type="curve" smooth="yes"/>
			<point x="121" y="463"/>
			<point x="154" y="497"/>
			<point x="206" y="497" type="curve" smooth="yes"/>
			<point x="221" y="497"/>
			<point x="233" y="495"/>
			<point x="246" y="493" type="curve"/>
			<point x="325" y="379" type="line"/>
		</contour>
	</outline>
</glyph>
<glyph name="t" format="2">
  <advance width="312"/>
  <unicode hex="0074"/>
  <outline>
    <contour>
      <point x="11" y="481" type="line"/>
      <point x="76" y="481" type="line"/>
      <point x="76" y="116" type="line" smooth="yes"/>
      <point x="76" y="37"/>
      <point x="120" y="-16"/>
      <point x="196" y="-14" type="curve"/>
      <point x="256" y="-16"/>
      <point x="298" y="16"/>
      <point x="325" y="88" type="curve"/>
      <point x="306" y="100" type="line"/>
      <point x="286" y="68"/>
      <point x="266" y="53"/>
      <point x="237" y="53" type="curve" smooth="yes"/>
      <point x="195" y="53"/>
      <point x="172" y="84"/>
      <point x="172" y="126" type="curve" smooth="yes"/>
      <point x="172" y="480" type="line"/>
      <point x="275" y="480" type="line"/>
      <point x="275" y="530" type="line"/>
      <point x="174" y="530" type="line"/>
      <point x="176" y="708" type="line"/>
      <point x="161" y="710" type="line"/>
      <point x="82" y="552" type="line"/>
      <point x="8" y="498" type="line"/>
    </contour>
  </outline>
</glyph>
<glyph name="u" format="2">
	<advance width="535"/>
	<unicode hex="0075"/>
	<outline>
		<contour>
			<point x="450" y="537" type="line"/>
			<point x="443" y="542" type="line"/>
			<point x="302" y="487" type="line"/>
			<point x="302" y="482" type="line"/>
			<point x="354" y="449" type="line"/>
			<point x="354" y="106" type="line"/>
			<point x="356" y="100" type="line"/>
			<point x="356" y="0" type="line"/>
			<point x="450" y="0" type="line"/>
		</contour>
		<contour>
			<point x="168" y="535" type="line"/>
			<point x="161" y="542" type="line"/>
			<point x="20" y="487" type="line"/>
			<point x="20" y="482" type="line"/>
			<point x="72" y="449" type="line"/>
			<point x="72" y="101" type="line" smooth="yes"/>
			<point x="72" y="33"/>
			<point x="113" y="-16"/>
			<point x="176" y="-16" type="curve" smooth="yes"/>
			<point x="221" y="-16"/>
			<point x="267" y="4"/>
			<point x="310" y="38" type="curve" smooth="yes"/>
			<point x="367" y="83" type="line"/>
			<point x="367" y="130" type="line"/>
			<point x="314" y="91" type="line" smooth="yes"/>
			<point x="293" y="76"/>
			<point x="258" y="57"/>
			<point x="227" y="57" type="curve" smooth="yes"/>
			<point x="182" y="57"/>
			<point x="168" y="81"/>
			<point x="168" y="128" type="curve" smooth="yes"/>
		</contour>
		<contour>
			<point x="424" y="0" type="line"/>
			<point x="490" y="0" type="line"/>
			<point x="494" y="8" type="line"/>
			<point x="450" y="72" type="line"/>
			<point x="450" y="152" type="line"/>
			<point x="424" y="152" type="line"/>
		</contour>
	</outline>
</glyph>
<glyph name="v" format="2">
	<advance width="507"/>
	<unicode hex="0076"/>
	<outline>
		<contour>
			<point x="159" y="462" type="line"/>
			<point x="212" y="522" type="line"/>
			<point x="208" y="530" type="line"/>
			<point x="11" y="530" type="line"/>
			<point x="7" y="522" type="line"/>
			<point x="67" y="462" type="line"/>
		</contour>
		<contour>
			<point x="439" y="462" type="line"/>
			<point x="495" y="522" type="line"/>
			<point x="491" y="530" type="line"/>
			<point x="337" y="530" type="line"/>
			<point x="333" y="522" type="line"/>
			<point x="391" y="462" type="line"/>
		</contour>
		<contour>
			<point x="38" y="530" type="line"/>
			<point x="226" y="0" type="line"/>
			<point x="275" y="0" type="line"/>
			<point x="466" y="530" type="line"/>
			<point x="402" y="530" type="line"/>
			<point x="274" y="150" type="line"/>
			<point x="268" y="150" type="line"/>
			<point x="141" y="530" type="line"/>
		</contour>
	</outline>
</glyph>
<glyph name="w" format="2">
  <advance width="707"/>
  <unicode hex="0077"/>
  <outline>
    <contour>
      <point x="30" y="531" type="line"/>
      <point x="206" y="0" type="line"/>
      <point x="255" y="0" type="line"/>
      <point x="352" y="331" type="line"/>
      <point x="396" y="331" type="line"/>
      <point x="342" y="457" type="line"/>
      <point x="251" y="148" type="line"/>
      <point x="245" y="148" type="line"/>
      <point x="132" y="531" type="line"/>
    </contour>
    <contour>
      <point x="291" y="531" type="line"/>
      <point x="461" y="0" type="line"/>
      <point x="510" y="0" type="line"/>
      <point x="676" y="531" type="line"/>
      <point x="611" y="531" type="line"/>
      <point x="506" y="148" type="line"/>
      <point x="501" y="148" type="line"/>
      <point x="385" y="531" type="line"/>
    </contour>
    <contour>
      <point x="150" y="463" type="line"/>
      <point x="202" y="523" type="line"/>
      <point x="198" y="531" type="line"/>
      <point x="9" y="531" type="line"/>
      <point x="5" y="523" type="line"/>
      <point x="59" y="463" type="line"/>
    </contour>
    <contour>
      <point x="395" y="463" type="line"/>
      <point x="451" y="523" type="line"/>
      <point x="447" y="531" type="line"/>
      <point x="268" y="531" type="line"/>
      <point x="264" y="523" type="line"/>
      <point x="320" y="463" type="line"/>
    </contour>
    <contour>
      <point x="650" y="463" type="line"/>
      <point x="697" y="523" type="line"/>
      <point x="693" y="531" type="line"/>
      <point x="527" y="531" type="line"/>
      <point x="523" y="523" type="line"/>
      <point x="595" y="463" type="line"/>
    </contour>
  </outline>
</glyph>
<glyph name="x" format="2">
	<advance width="475"/>
	<unicode hex="0078"/>
	<outline>
		<contour>
			<point x="166" y="466" type="line"/>
			<point x="210" y="522" type="line"/>
			<point x="206" y="530" type="line"/>
			<point x="21" y="530" type="line"/>
			<point x="17" y="522" type="line"/>
			<point x="80" y="466" type="line"/>
		</contour>
		<contour>
			<point x="34" y="530" type="line"/>
			<point x="208" y="244" type="line"/>
			<point x="261" y="254" type="line"/>
			<point x="434" y="530" type="line"/>
			<point x="356" y="530" type="line"/>
			<point x="256" y="337" type="line"/>
			<point x="251" y="337" type="line"/>
			<point x="144" y="530" type="line"/>
		</contour>
		<contour>
			<point x="451" y="0" type="line"/>
			<point x="266" y="307" type="line"/>
			<point x="204" y="299" type="line"/>
			<point x="16" y="0" type="line"/>
			<point x="98" y="0" type="line"/>
			<point x="214" y="216" type="line"/>
			<point x="220" y="216" type="line"/>
			<point x="338" y="0" type="line"/>
		</contour>
		<contour>
			<point x="386" y="466" type="line"/>
			<point x="446" y="522" type="line"/>
			<point x="442" y="530" type="line"/>
			<point x="276" y="530" type="line"/>
			<point x="272" y="522" type="line"/>
			<point x="330" y="468" type="line"/>
		</contour>
		<contour>
			<point x="76" y="73" type="line"/>
			<point x="4" y="8" type="line"/>
			<point x="8" y="0" type="line"/>
			<point x="176" y="0" type="line"/>
			<point x="180" y="8" type="line"/>
			<point x="128" y="73" type="line"/>
		</contour>
		<contour>
			<point x="320" y="73" type="line"/>
			<point x="275" y="8" type="line"/>
			<point x="279" y="0" type="line"/>
			<point x="463" y="0" type="line"/>
			<point x="467" y="8" type="line"/>
			<point x="395" y="73" type="line"/>
		</contour>
	</outline>
</glyph>
<glyph name="y" format="2">
	<advance width="473"/>
	<unicode hex="0079"/>
	<outline>
		<contour>
			<point x="146" y="462" type="line"/>
			<point x="204" y="522" type="line"/>
			<point x="200" y="530" type="line"/>
			<point x="7" y="530" type="line"/>
			<point x="3" y="522" type="line"/>
			<point x="60" y="462" type="line"/>
		</contour>
		<contour>
			<point x="415" y="462" type="line"/>
			<point x="466" y="522" type="line"/>
			<point x="462" y="530" type="line"/>
			<point x="300" y="530" type="line"/>
			<point x="296" y="522" type="line"/>
			<point x="364" y="462" type="line"/>
		</contour>
		<contour>
			<point x="253" y="163" type="line"/>
			<point x="138" y="530" type="line"/>
			<point x="30" y="530" type="line"/>
			<point x="232" y="-37" type="line"/>
			<point x="276" y="163" type="line"/>
		</contour>
		<contour>
			<point x="190" y="-228" type="line"/>
			<point x="442" y="530" type="line"/>
			<point x="373" y="530" type="line"/>
			<point x="244" y="115" type="line"/>
			<point x="222" y="17" type="line"/>
			<point x="63" y="-164" type="line"/>
		</contour>
	</outline>
</glyph>
<glyph name="z" format="2">
  <advance width="393"/>
  <unicode hex="007A"/>
  <outline>
    <contour>
      <point x="36" y="358" type="line"/>
      <point x="50" y="354" type="line"/>
      <point x="135" y="480" type="line"/>
      <point x="280" y="480" type="line"/>
      <point x="259" y="509" type="line"/>
      <point x="7" y="7" type="line"/>
      <point x="13" y="0" type="line"/>
      <point x="356" y="0" type="line"/>
      <point x="362" y="203" type="line"/>
      <point x="346" y="207" type="line"/>
      <point x="275" y="50" type="line"/>
      <point x="78" y="50" type="line"/>
      <point x="119" y="23" type="line"/>
      <point x="363" y="522" type="line"/>
      <point x="357" y="530" type="line"/>
      <point x="54" y="530" type="line"/>
    </contour>
  </outline>
</glyph>
<glyph name="R.alt" format="2">
	<advance width="543"/>
	<outline>
		<contour>
			<point x="235" y="0" type="line"/>
			<point x="239" y="9" type="line"/>
			<point x="190" y="66" type="line"/>
			<point x="190" y="650" type="line"/>
			<point x="261" y="650" type="line" smooth="yes"/>
			<point x="344" y="650"/>
			<point x="394" y="596"/>
			<point x="394" y="509" type="curve" smooth="yes"/>
			<point x="394" y="418"/>
			<point x="342" y="361"/>
			<point x="261" y="361" type="curve" smooth="yes"/>
			<point x="174" y="361" type="line"/>
			<point x="174" y="313" type="line"/>
			<point x="269" y="313" type="line" smooth="yes"/>
			<point x="411" y="313"/>
			<point x="497" y="410"/>
			<point x="497" y="509" type="curve" smooth="yes"/>
			<point x="497" y="626"/>
			<point x="419" y="700"/>
			<point x="268" y="700" type="curve" smooth="yes"/>
			<point x="94" y="700" type="line"/>
			<point x="94" y="0" type="line"/>
		</contour>
		<contour>
			<point x="562" y="0" type="line"/>
			<point x="563" y="5" type="line"/>
			<point x="513" y="43" type="line"/>
			<point x="345" y="361" type="line"/>
			<point x="255" y="343" type="line"/>
			<point x="417" y="0" type="line"/>
		</contour>
		<contour>
			<point x="94" y="152" type="line"/>
			<point x="94" y="72" type="line"/>
			<point x="51" y="8" type="line"/>
			<point x="55" y="0" type="line"/>
			<point x="109" y="0" type="line"/>
			<point x="109" y="152" type="line"/>
		</contour>
		<contour>
			<point x="109" y="598" type="line"/>
			<point x="109" y="700" type="line"/>
			<point x="56" y="700" type="line"/>
			<point x="52" y="692" type="line"/>
			<point x="94" y="632" type="line"/>
			<point x="94" y="598" type="line"/>
		</contour>
	</outline>
</glyph>
